HIERARCHY
ROOT Hips
{
  OFFSET 0.0 0.0 0.0
  CHANNELS 6 XPOSITION YPOSITION ZPOSITION ZROTATION XROTATION YROTATION 
  JOINT LeftUpLeg
  {
    OFFSET 0.089458 -0.0866707 0.00101652
    CHANNELS 3 ZROTATION XROTATION YROTATION 
    JOINT LeftLeg
    {
      OFFSET 0.0 -0.444227 0.013727
      CHANNELS 3 ZROTATION XROTATION YROTATION 
      JOINT LeftFoot
      {
        OFFSET -0.00253549 -0.420924 -0.0146059
        CHANNELS 3 ZROTATION XROTATION YROTATION 
        End Site
        {
          OFFSET -0.0004 -0.0441509 0.084991
        }
      }
    }
  }
  JOINT Spine
  {
    OFFSET 0.0 0.118905 0.0
    CHANNELS 3 ZROTATION XROTATION YROTATION 
    JOINT Spine1
    {
      OFFSET 0.0 0.256574 0.00127663
      CHANNELS 3 ZROTATION XROTATION YROTATION 
      End Site
      {
        OFFSET -0.0029 0.2150836 0.02525291
      }
      JOINT RightArm
      {
        OFFSET -0.162727 -0.05365632 0.00102123
        CHANNELS 3 ZROTATION XROTATION YROTATION 
        JOINT RightForeArm
        {
          OFFSET -0.26364 0.00099144 -0.0142434
          CHANNELS 3 ZROTATION XROTATION YROTATION 
          End Site
          {
            OFFSET -0.220324 0.00085362 0.0102216
          }
        }
      }
      JOINT LeftArm
      {
        OFFSET 0.162727 -0.0536563199 0.00102123
        CHANNELS 3 ZROTATION XROTATION YROTATION 
        JOINT LeftForeArm
        {
          OFFSET 0.262597 0.00099144 -0.0142434
          CHANNELS 3 ZROTATION XROTATION YROTATION 
          End Site
          {
            OFFSET 0.220902 0.00085362 0.0102216
          }
        }
      }
    }
  }
  JOINT RightUpLeg
  {
    OFFSET -0.089458 -0.0866707 0.00101652
    CHANNELS 3 ZROTATION XROTATION YROTATION 
    JOINT RightLeg
    {
      OFFSET 0.0 -0.444227 0.013727
      CHANNELS 3 ZROTATION XROTATION YROTATION 
      JOINT RightFoot
      {
        OFFSET 0.00253549 -0.420924 -0.0146059
        CHANNELS 3 ZROTATION XROTATION YROTATION 
        End Site
        {
          OFFSET 0.0004 -0.0441509 0.084991
        }
      }
    }
  }
}
MOTION
Frames: 13
Frame Time: 0.033333
-3.86842857384 0.95601110863 0.271753850582 -10.544475069 -1.751093377 -96.9839187421 -6.97235101985 9.20777118991 5.172066407 0.126192454011 16.8696878631 17.073288972 2.85816458862 -44.4992186125 3.03165480863 -5.49605173453 17.9447664686 -0.551115691132 2.51596741545 -0.997440699027 -2.01695571568 75.5938631297 -13.303658904 -1.09991573469 6.71895057476 31.0927115737 12.0587476448 -68.579217871 -7.46761315921 -7.88139882573 3.1510586816 27.7432636444 -32.3009959436 -2.51195830785 -28.6554371156 1.0355595579 -1.97200282566 53.5672168112 -16.4484444838 12.989870622 -36.914324275 -0.654513816191 
-3.89896745018 0.951909198469 0.2707526663 -10.5986290776 -1.68260461559 -96.9791990814 -7.1264375262 11.3999537012 5.48266541753 0.156052827103 16.7317846362 17.1198537867 2.27829497502 -46.2037128104 2.62380927225 -5.14353201109 17.7983425807 -0.520743387358 2.4607683879 -0.365044209307 -1.89722612807 75.9188776814 -12.8895274592 -0.209547055446 6.68177983152 31.1671538055 12.1757846437 -68.5262360936 -7.45023374287 -9.86660099196 3.45086577979 27.8808970788 -33.2065629143 -2.40321636018 -28.5074047181 -0.491668606082 -1.72056787422 45.3565849382 -15.2992907691 13.701412409 -37.7969042441 -0.439879843959 
-3.93179117 0.946573309818 0.269054293225 -10.4195218807 -1.85307066263 -96.5394646725 -7.34360595219 13.4900624504 5.47950303994 0.193385854034 16.565273162 16.9219524706 1.35828108698 -47.5452131898 2.09144874697 -4.83118105704 17.2786744679 -0.511017731588 2.44945375265 0.422856371185 -1.81820254692 76.1014486379 -12.3461978635 0.582344329874 6.67533384049 31.2598872838 12.2487950971 -68.5188321685 -6.64986534574 -11.6270574911 3.3514143835 27.7522846167 -33.1657901 -2.37692738895 -27.6176667108 -2.55289419287 -1.57241915013 36.6388525005 -14.5925335296 13.9783962166 -38.4770032552 -0.236361390951 
-3.96706260199 0.939913744543 0.266518670617 -10.0897987674 -2.196902172 -95.6005595484 -7.51321747852 15.4876742166 5.31356743604 0.314170345687 16.6112608256 16.4928782794 0.0826475701336 -48.7832122977 1.45160697753 -4.49654618394 16.4270813596 -0.506004639542 2.40915115424 1.16082629449 -1.74338337409 76.1271779605 -12.1883496305 1.1727400654 6.75638854914 31.6184551398 12.0975055532 -68.4305519735 -4.84506170898 -13.0347663092 2.84895557263 27.3057388016 -32.196664804 -2.4348719391 -26.367065904 -4.14120004284 -1.22271570578 28.5497467684 -14.6309840796 14.1383805914 -39.0967063186 -0.0527615971725 
-4.0046836841 0.931625615498 0.263357255607 -9.72540646766 -2.63765022372 -94.4817472416 -7.6344823646 17.4322990827 5.24072304165 0.531433753987 17.0862629164 15.7907911818 -1.6296543211 -50.1105263742 0.687699410852 -4.16284021656 15.3369131586 -0.503380939766 2.31785415003 1.72492916345 -1.6697055899 76.0179154244 -12.9231926078 1.57905062348 6.98536509154 32.6238658158 11.500331015 -68.2602275462 -2.0915063767 -13.9324307511 1.9768529003 26.4410522206 -30.4081456189 -2.59005895969 -24.982289446 -4.1831258784 -0.648022254994 22.4651888595 -15.228878349 14.7345963417 -39.8179435591 0.169144258689 
-4.04236461774 0.924883662986 0.260204482859 -9.46049245806 -1.9097349792 -94.4256918791 -6.57736160704 18.5664605322 5.69299468972 0.671248206545 19.7182524074 15.0094824275 -4.75455273785 -49.8955700757 -0.4012975194 -2.45549462808 14.5119475427 -0.596056628324 1.80188074268 1.91516135105 -1.42532942553 75.8353034867 -14.4325021974 2.22395953951 7.43537295878 34.2317367427 9.98777537803 -68.9330763115 -2.21639916043 -12.9590639076 1.19950768348 27.877113154 -28.3477046501 -1.55949227007 -24.2556444032 -3.83716484411 -0.523277280818 20.9582083644 -15.0545497232 13.6609315853 -39.0594408065 0.147897407811 
-4.08016557769 0.922842651071 0.255158564833 -9.31525190046 -0.190827134437 -94.7828424708 -4.08281131695 17.944942346 6.35134253655 0.714635062256 26.0515897115 14.3291768032 -8.69788134666 -46.5557578357 -1.67936870675 0.155347596731 14.1119076319 -0.809101967924 1.20548249817 1.76721048901 -1.12504837624 75.7428363857 -15.8523909504 3.35011387279 7.97064036988 35.6391450325 7.96738663852 -70.2160044037 -5.18196164356 -9.9609873761 0.748559811451 31.1856158068 -26.6640442366 0.566839373571 -24.0385092744 -3.48449592372 -0.709645982594 22.9535286021 -14.4477386419 10.3137145665 -37.5946964937 0.158172773747 
-4.1182310133 0.925474673278 0.24702259626 -8.72189885311 1.11690444287 -94.3183622865 -1.19532227162 14.8622542849 5.89978208193 0.822073777818 35.5209690994 13.7562187007 -11.0380885714 -40.1567516778 -2.38267371248 1.92473215363 13.7971895904 -1.20930302852 1.32967806901 1.50809029409 -1.12762837348 75.8307750713 -16.847984937 4.45288804165 8.2520339184 36.1783952976 6.7538080183 -71.0114892156 -6.57735477685 -6.54302496542 0.438237236825 33.0350705246 -25.5332073818 2.35154128335 -23.5578312965 -2.93386272142 -0.723740878359 25.0901842368 -14.8576661053 5.33083073917 -34.2469100079 -0.0030650859516 
-4.15594487215 0.926320951761 0.237612563075 -7.491282326 2.08915892606 -92.9721524916 1.4900587014 9.70781360791 4.0674177781 1.0626478747 46.5771363278 13.6523144479 -11.7051094778 -32.8624135877 -2.47384030275 3.55300485553 13.6401148763 -1.77128896572 1.69293516999 1.24356998086 -1.22192276351 76.0309474253 -17.5582170352 5.12032985848 8.18613369197 35.663354638 6.95095075652 -71.443082039 -6.21102313024 -3.61760030239 0.0925401453211 33.8502365266 -24.7131765776 3.85068136159 -22.9295239023 -2.89769516222 -0.779345395031 27.1168106465 -16.0936332318 1.02217911059 -30.8274372716 -0.0919213061699 
-4.19352623721 0.920461195383 0.22946886776 -6.59954819589 2.91421013274 -91.2267522907 3.21368980874 4.11329786631 2.14909298225 1.66586158078 57.0330255508 14.0948219137 -11.8849423823 -28.4761685555 -2.32800445147 5.51260512487 13.7259788919 -2.15314947429 1.43927400377 1.20572678416 -0.986401512503 76.2730844616 -17.4944760023 5.58314817239 7.94300713205 34.1451640949 8.24288914888 -71.7806846293 -5.40464459353 -1.55088356368 -0.246834285424 34.47030159 -23.9765167699 5.06922211424 -21.7447439209 -3.17295776218 -0.885412790034 28.8537140921 -17.2592784382 -0.454775392641 -31.0349725696 -0.103555412843 
-4.2282115852 0.921238474819 0.224753692009 -6.93009306634 3.48670250171 -90.2067933118 3.80204443828 -0.994560280188 0.97710359733 2.56412473141 65.4364975697 14.9793834914 -11.8123169808 -28.3750920011 -2.12667203252 7.38422167209 13.9323778171 -2.10263552962 0.373246359366 1.49419288684 -0.292192744609 76.4824365898 -16.1499413114 6.32517907005 7.70422713376 32.268842828 9.81450970048 -72.1503412974 -5.49806792099 -0.0594455575953 -0.546596560501 35.1619402057 -23.182925628 5.78363684953 -19.5685346608 -3.59400712145 -1.01160875252 29.9318253016 -17.4654237927 -0.643609472542 -32.5355241491 -0.215724001055 
-4.25974000764 0.927177326906 0.222608178565 -7.64470545024 3.67175601854 -90.0602174522 3.80456392431 -5.54845721471 0.216539981877 3.28803129522 71.3085956143 15.7484679146 -11.2149862021 -30.5595572524 -1.92303100964 8.87579240662 14.0970630695 -1.74345146254 -1.04176062261 1.87532235173 0.661079015366 76.5513531985 -13.7554409129 7.44450577547 7.47893846663 30.7913602124 11.1860040019 -72.5295534001 -6.47418306189 1.29430345208 -0.859814575046 35.5561240831 -22.3283016232 6.00882178317 -16.7035213134 -4.21935960506 -1.11351410772 30.1179582018 -16.7407714576 -0.881478174186 -34.6022505995 -0.349766116671 
-4.28951136077 0.933232564944 0.221271352578 -8.26164399456 3.71339626682 -90.3091436965 3.68545012094 -9.69809083363 -0.626684530583 3.49117478151 74.5986909073 15.9314264843 -10.2107784931 -32.458687936 -1.68360769291 10.0879571777 14.2273574657 -1.30175294731 -2.41419418172 1.9613396197 1.6125386141 76.4149543208 -10.8144015836 8.67631417059 7.19492639433 29.5063933088 12.4597651264 -72.8754478401 -7.31558680866 2.71444588254 -1.14641672978 35.308792688 -21.6101328452 5.99506748972 -13.6106673695 -4.98213336034 -1.05442923614 29.4522811351 -15.7327243286 -1.42007882432 -36.7585754714 -0.527176891947 
